<mxfile host="app.diagrams.net" agent="Mozilla/5.0 (Windows NT 10.0; Win64; x64) AppleWebKit/537.36 (KHTML, like Gecko) Chrome/129.0.0.0 Safari/537.36" version="24.7.17" pages="2">
  <diagram name="Page-1" id="Waiu-AX5xQFznSkMyZLT">
    <mxGraphModel dx="1114" dy="550" grid="1" gridSize="10" guides="1" tooltips="1" connect="1" arrows="1" fold="1" page="1" pageScale="1" pageWidth="850" pageHeight="1100" math="0" shadow="0">
      <root>
        <mxCell id="0" />
        <mxCell id="1" parent="0" />
        <mxCell id="DNVqgZWNLbC8YsdY5BuQ-10" style="edgeStyle=orthogonalEdgeStyle;rounded=0;orthogonalLoop=1;jettySize=auto;html=1;exitX=1;exitY=0.5;exitDx=0;exitDy=0;entryX=0;entryY=0.5;entryDx=0;entryDy=0;" edge="1" parent="1" source="DNVqgZWNLbC8YsdY5BuQ-2" target="DNVqgZWNLbC8YsdY5BuQ-3">
          <mxGeometry relative="1" as="geometry" />
        </mxCell>
        <mxCell id="DNVqgZWNLbC8YsdY5BuQ-2" value="RCSA" style="rounded=0;whiteSpace=wrap;html=1;" vertex="1" parent="1">
          <mxGeometry x="210" y="174" width="100" height="60" as="geometry" />
        </mxCell>
        <mxCell id="DNVqgZWNLbC8YsdY5BuQ-11" style="edgeStyle=orthogonalEdgeStyle;rounded=0;orthogonalLoop=1;jettySize=auto;html=1;exitX=1;exitY=0.5;exitDx=0;exitDy=0;entryX=0;entryY=0.5;entryDx=0;entryDy=0;" edge="1" parent="1" source="DNVqgZWNLbC8YsdY5BuQ-3" target="DNVqgZWNLbC8YsdY5BuQ-4">
          <mxGeometry relative="1" as="geometry" />
        </mxCell>
        <mxCell id="DNVqgZWNLbC8YsdY5BuQ-3" value="Dashborad&lt;br&gt;Risk Piority&amp;nbsp;&lt;br&gt;wise List" style="rounded=0;whiteSpace=wrap;html=1;" vertex="1" parent="1">
          <mxGeometry x="375" y="174" width="100" height="60" as="geometry" />
        </mxCell>
        <mxCell id="DNVqgZWNLbC8YsdY5BuQ-12" style="edgeStyle=orthogonalEdgeStyle;rounded=0;orthogonalLoop=1;jettySize=auto;html=1;exitX=1;exitY=0.5;exitDx=0;exitDy=0;entryX=0;entryY=0.5;entryDx=0;entryDy=0;" edge="1" parent="1" source="DNVqgZWNLbC8YsdY5BuQ-4" target="DNVqgZWNLbC8YsdY5BuQ-8">
          <mxGeometry relative="1" as="geometry" />
        </mxCell>
        <mxCell id="DNVqgZWNLbC8YsdY5BuQ-4" value="IA Schedule" style="rounded=0;whiteSpace=wrap;html=1;" vertex="1" parent="1">
          <mxGeometry x="530" y="174" width="100" height="60" as="geometry" />
        </mxCell>
        <mxCell id="DNVqgZWNLbC8YsdY5BuQ-6" value="&lt;b&gt;&lt;font style=&quot;font-size: 33px;&quot;&gt;&lt;u&gt;LEVEL 0&lt;/u&gt;&lt;/font&gt;&lt;/b&gt;" style="text;html=1;align=center;verticalAlign=middle;resizable=0;points=[];autosize=1;strokeColor=none;fillColor=none;" vertex="1" parent="1">
          <mxGeometry x="330" y="38" width="160" height="50" as="geometry" />
        </mxCell>
        <mxCell id="DNVqgZWNLbC8YsdY5BuQ-9" style="edgeStyle=orthogonalEdgeStyle;rounded=0;orthogonalLoop=1;jettySize=auto;html=1;exitX=1;exitY=0.5;exitDx=0;exitDy=0;" edge="1" parent="1" source="DNVqgZWNLbC8YsdY5BuQ-7" target="DNVqgZWNLbC8YsdY5BuQ-2">
          <mxGeometry relative="1" as="geometry" />
        </mxCell>
        <mxCell id="DNVqgZWNLbC8YsdY5BuQ-7" value="START" style="ellipse;whiteSpace=wrap;html=1;aspect=fixed;" vertex="1" parent="1">
          <mxGeometry x="80" y="164" width="80" height="80" as="geometry" />
        </mxCell>
        <mxCell id="DNVqgZWNLbC8YsdY5BuQ-8" value="END" style="ellipse;whiteSpace=wrap;html=1;aspect=fixed;" vertex="1" parent="1">
          <mxGeometry x="680" y="164" width="80" height="80" as="geometry" />
        </mxCell>
        <mxCell id="DNVqgZWNLbC8YsdY5BuQ-13" value="&lt;b&gt;&lt;font style=&quot;font-size: 16px;&quot;&gt;&lt;u&gt;AUDIT PLANNING&lt;/u&gt;&lt;/font&gt;&lt;/b&gt;" style="text;html=1;align=center;verticalAlign=middle;resizable=0;points=[];autosize=1;strokeColor=none;fillColor=none;" vertex="1" parent="1">
          <mxGeometry x="330" y="100" width="160" height="30" as="geometry" />
        </mxCell>
      </root>
    </mxGraphModel>
  </diagram>
  <diagram id="vcXjgGhgaeZCJ_sGuJuD" name="Page-2">
    <mxGraphModel dx="1114" dy="550" grid="1" gridSize="10" guides="1" tooltips="1" connect="1" arrows="1" fold="1" page="1" pageScale="1" pageWidth="850" pageHeight="1100" math="0" shadow="0">
      <root>
        <mxCell id="0" />
        <mxCell id="1" parent="0" />
        <mxCell id="E9dVuDhzqFgfp8poZ2co-1" value="&lt;b&gt;&lt;font style=&quot;font-size: 33px;&quot;&gt;&lt;u&gt;LEVEL 1&lt;/u&gt;&lt;/font&gt;&lt;/b&gt;" style="text;html=1;align=center;verticalAlign=middle;resizable=0;points=[];autosize=1;strokeColor=none;fillColor=none;" vertex="1" parent="1">
          <mxGeometry x="330" y="50" width="160" height="50" as="geometry" />
        </mxCell>
        <mxCell id="i3dMDKVX-2DBgxomq5SZ-1" value="&lt;b style=&quot;forced-color-adjust: none; color: rgb(0, 0, 0); font-family: Helvetica; font-size: 12px; font-style: normal; font-variant-ligatures: normal; font-variant-caps: normal; letter-spacing: normal; orphans: 2; text-align: center; text-indent: 0px; text-transform: none; widows: 2; word-spacing: 0px; -webkit-text-stroke-width: 0px; white-space: nowrap; background-color: rgb(251, 251, 251); text-decoration-thickness: initial; text-decoration-style: initial; text-decoration-color: initial;&quot;&gt;&lt;font style=&quot;forced-color-adjust: none; font-size: 16px;&quot;&gt;&lt;u style=&quot;forced-color-adjust: none;&quot;&gt;RCSA AUDIT PLANNING&lt;/u&gt;&lt;/font&gt;&lt;/b&gt;" style="text;whiteSpace=wrap;html=1;" vertex="1" parent="1">
          <mxGeometry x="320" y="110" width="170" height="40" as="geometry" />
        </mxCell>
        <mxCell id="i3dMDKVX-2DBgxomq5SZ-4" style="edgeStyle=orthogonalEdgeStyle;rounded=0;orthogonalLoop=1;jettySize=auto;html=1;" edge="1" parent="1" source="i3dMDKVX-2DBgxomq5SZ-2">
          <mxGeometry relative="1" as="geometry">
            <mxPoint x="240" y="220" as="targetPoint" />
          </mxGeometry>
        </mxCell>
        <mxCell id="i3dMDKVX-2DBgxomq5SZ-2" value="START" style="ellipse;whiteSpace=wrap;html=1;aspect=fixed;" vertex="1" parent="1">
          <mxGeometry x="100" y="180" width="80" height="80" as="geometry" />
        </mxCell>
        <mxCell id="i3dMDKVX-2DBgxomq5SZ-3" value="END" style="ellipse;whiteSpace=wrap;html=1;aspect=fixed;" vertex="1" parent="1">
          <mxGeometry x="670" y="180" width="80" height="80" as="geometry" />
        </mxCell>
        <mxCell id="i3dMDKVX-2DBgxomq5SZ-9" style="edgeStyle=orthogonalEdgeStyle;rounded=0;orthogonalLoop=1;jettySize=auto;html=1;exitX=0.5;exitY=1;exitDx=0;exitDy=0;entryX=0;entryY=0.5;entryDx=0;entryDy=0;" edge="1" parent="1" source="i3dMDKVX-2DBgxomq5SZ-5" target="i3dMDKVX-2DBgxomq5SZ-8">
          <mxGeometry relative="1" as="geometry" />
        </mxCell>
        <mxCell id="i3dMDKVX-2DBgxomq5SZ-5" value="&amp;nbsp;Upload RCSA" style="rounded=0;whiteSpace=wrap;html=1;align=left;" vertex="1" parent="1">
          <mxGeometry x="240" y="190" width="120" height="60" as="geometry" />
        </mxCell>
        <mxCell id="i3dMDKVX-2DBgxomq5SZ-6" value="" style="html=1;verticalLabelPosition=bottom;align=center;labelBackgroundColor=#ffffff;verticalAlign=top;strokeWidth=2;strokeColor=#0080F0;shadow=0;dashed=0;shape=mxgraph.ios7.icons.up;" vertex="1" parent="1">
          <mxGeometry x="330" y="210" width="20" height="20" as="geometry" />
        </mxCell>
        <mxCell id="i3dMDKVX-2DBgxomq5SZ-10" style="edgeStyle=orthogonalEdgeStyle;rounded=0;orthogonalLoop=1;jettySize=auto;html=1;exitX=0.5;exitY=1;exitDx=0;exitDy=0;entryX=1;entryY=0.5;entryDx=0;entryDy=0;" edge="1" parent="1" source="i3dMDKVX-2DBgxomq5SZ-7" target="i3dMDKVX-2DBgxomq5SZ-8">
          <mxGeometry relative="1" as="geometry" />
        </mxCell>
        <mxCell id="i3dMDKVX-2DBgxomq5SZ-11" style="edgeStyle=orthogonalEdgeStyle;rounded=0;orthogonalLoop=1;jettySize=auto;html=1;exitX=1;exitY=0.5;exitDx=0;exitDy=0;entryX=0;entryY=0.5;entryDx=0;entryDy=0;" edge="1" parent="1" source="i3dMDKVX-2DBgxomq5SZ-7" target="i3dMDKVX-2DBgxomq5SZ-3">
          <mxGeometry relative="1" as="geometry" />
        </mxCell>
        <mxCell id="i3dMDKVX-2DBgxomq5SZ-7" value="&amp;nbsp;Mannual CreateRCSA" style="rounded=0;whiteSpace=wrap;html=1;align=center;" vertex="1" parent="1">
          <mxGeometry x="420" y="190" width="170" height="60" as="geometry" />
        </mxCell>
        <mxCell id="i3dMDKVX-2DBgxomq5SZ-8" value="RCSA DASHBORAD" style="rounded=0;whiteSpace=wrap;html=1;" vertex="1" parent="1">
          <mxGeometry x="340" y="310" width="120" height="60" as="geometry" />
        </mxCell>
      </root>
    </mxGraphModel>
  </diagram>
</mxfile>
